<svg width="96" height="96" viewBox="0 0 96 96" fill="none" xmlns="http://www.w3.org/2000/svg">
<rect width="96" height="96" rx="5" fill="url(#paint0_linear_2005_17)"/>
<path d="M66.8198 51.9748H81.4928L88 28H71.7959L65.799 50.082C65.4163 51.3438 64.3955 51.9748 63.3748 51.9748H50.7432C49.5949 51.9748 48.9569 51.3438 48.5742 50.3344L44.7464 35.9495L29.6906 50.8391C29.3078 51.2177 28.2871 51.2177 28.0319 50.4606L24.2041 35.9495H8L12.3381 51.9748H26.8836C28.0319 51.9748 28.6699 52.6057 29.0526 53.6151L33.008 68L48.0638 53.1104C48.5742 52.6057 49.3397 52.858 49.5949 53.3628L53.5502 68H69.7544L65.799 53.6151C65.5439 52.7319 65.9266 51.9748 66.8198 51.9748Z" fill="white"/>
<defs>
<linearGradient id="paint0_linear_2005_17" x1="48" y1="0" x2="48" y2="96" gradientUnits="userSpaceOnUse">
<stop stop-color="#40F0C3"/>
<stop offset="1" stop-color="#2C8885"/>
</linearGradient>
</defs>
</svg>
